<svg width="15" height="16" viewBox="0 0 15 16" fill="none" xmlns="http://www.w3.org/2000/svg">
<path d="M7.5 0.5C3.36469 0.5 0 3.86469 0 8C0 12.1353 3.36469 15.5 7.5 15.5C11.6353 15.5 15 12.1353 15 8C15 3.86469 11.6353 0.5 7.5 0.5ZM7.97625 2.93656L9.90469 1.89969C10.9725 2.3225 11.9044 3.01531 12.6131 3.89656L12.1537 6.01719L10.6828 6.73812L7.97625 4.76656V2.93656ZM5.11125 1.89406L7.03969 2.93469V4.76656L4.335 6.73812L2.85656 6.01625L2.39719 3.8825C3.10781 3.00312 4.04156 2.31406 5.11125 1.89406ZM2.09063 11.7069C1.47844 10.8163 1.08 9.76906 0.970312 8.6375L2.5575 6.91344L4.005 7.62125L5.09531 10.7178L4.17375 11.8222L2.09063 11.7069ZM9.17156 14.3384C8.63625 14.48 8.07844 14.5625 7.5 14.5625C6.80062 14.5625 6.1275 14.45 5.49469 14.2466L4.905 12.4109L5.84531 11.2812H9.15844L10.0819 12.3744L9.17156 14.3384ZM10.8131 11.7903L9.90656 10.7169L11.0119 7.62125L12.4528 6.91531L14.0306 8.63844C13.9359 9.61438 13.6219 10.5247 13.1447 11.33L10.8131 11.7903Z" fill="#18B923"/>
</svg>
