<svg width="81" height="60" viewBox="0 0 81 60" fill="none" xmlns="http://www.w3.org/2000/svg">
<rect width="81" height="60" fill="#E5E5E5"/>
<g clip-path="url(#clip0_0_1)">
<rect width="360" height="6478" transform="translate(-140 -1673)" fill="#FEFEFE"/>
<path d="M47.1667 20H7.16667C3.48667 20 0.5 22.9867 0.5 26.6667V53.3333C0.5 57.0133 3.48667 60 7.16667 60H47.1667C50.8467 60 53.8333 57.0133 53.8333 53.3333V26.6667C53.8333 22.9867 50.8467 20 47.1667 20ZM43.8333 33.3333H10.5V30H43.8333V33.3333ZM27.9767 3.33333H37.1667V10H30.1567C28.4433 10 26.7967 10.66 25.5567 11.8433L23.9933 13.3333H13.8333L20.9033 6.26333C22.78 4.38667 25.3233 3.33333 27.9767 3.33333ZM60.7 6.66667C60.7 10.3467 57.7133 13.3333 54.0333 13.3333H40.5V0H54.0333C57.7133 0 60.7 2.98333 60.7 6.66667ZM80.5 23.3333V56.6667L60.5 46.6667V33.3333L80.5 23.3333Z" fill="#18B923"/>
</g>
<defs>
<clipPath id="clip0_0_1">
<rect width="360" height="6478" fill="white" transform="translate(-140 -1673)"/>
</clipPath>
</defs>
</svg>
