<svg width="67" height="60" viewBox="0 0 67 60" fill="none" xmlns="http://www.w3.org/2000/svg">
<path fill-rule="evenodd" clip-rule="evenodd" d="M66.2275 19.6364C66.2275 18.7691 65.8839 17.9373 65.2702 17.3209C64.6539 16.7073 63.822 16.3636 62.9548 16.3636H44.9548C44.0875 16.3636 43.2557 16.7073 42.6393 17.3209C42.0257 17.9373 41.682 18.7691 41.682 19.6364V56.7273C41.682 57.5945 42.0257 58.4264 42.6393 59.0427C43.2557 59.6564 44.0875 60 44.9548 60H62.9548C63.822 60 64.6539 59.6564 65.2702 59.0427C65.8839 58.4264 66.2275 57.5945 66.2275 56.7273V19.6364V19.6364ZM36.2275 60H14.4093L21.4975 51.8182H36.2275V60ZM53.9548 57.2727C52.4466 57.2727 51.2275 56.0509 51.2275 54.5455C51.2275 53.04 52.4466 51.8182 53.9548 51.8182C55.4602 51.8182 56.6793 53.04 56.6793 54.5455C56.6793 56.0509 55.4602 57.2727 53.9548 57.2727ZM63.5002 49.0909V24.48H44.4093V49.0909H63.5002ZM58.0457 10.9091H52.5911V5.45455H6.2275V40.9091H36.2275V46.3636H0.772949V0H58.0457V10.9091ZM56.682 21.8182C57.4348 21.8182 58.0457 21.2073 58.0457 20.4545C58.0457 19.7018 57.4348 19.0909 56.682 19.0909H51.2275C50.4748 19.0909 49.8639 19.7018 49.8639 20.4545C49.8639 21.2073 50.4748 21.8182 51.2275 21.8182H56.682Z" fill="#18B923"/>
</svg>
