<svg width="133" height="97" viewBox="0 0 133 97" fill="none" xmlns="http://www.w3.org/2000/svg">
<path d="M41.6145 63.5739L45.2238 60.7607C43.7005 57.2927 42.4072 53.5417 41.3558 49.5303C38.695 39.3867 38.2548 30.0801 38.22 25.581C48.8967 18.4644 60.7774 15.5684 66.4758 14.5177C72.1726 15.5684 84.0534 18.4659 94.7316 25.581C94.7089 28.5944 94.5017 33.7588 93.5714 39.885C95.6226 39.6923 97.9567 39.6863 99.7523 39.7254C101.174 29.7158 100.773 22.4155 100.773 22.4155C87.8276 12.7958 72.5856 9.39701 66.4743 8.36444C60.363 9.39701 45.1225 12.7958 32.1767 22.4155C32.1767 22.4155 30.9817 44.1914 40.0519 64.0932L41.6145 63.5739Z" fill="#1C1A2E"/>
<path d="M91.8968 48.3352C91.7985 48.7325 91.6986 49.1299 91.5927 49.5303C89.4749 57.6072 86.38 64.6305 82.397 70.406C78.1236 76.6014 72.7762 81.391 66.4743 84.6739C60.1724 81.391 54.8249 76.6014 50.5516 70.406C50.2717 70.0011 49.9994 69.5887 49.7286 69.1717L43.345 70.4075C48.4307 78.9812 55.7991 86.6773 66.4743 91.3991C86.507 82.5395 94.9056 63.2081 98.3954 47.2574L91.8968 48.3352Z" fill="#1C1A2E"/>
<path d="M57.0365 68.4899L56.3271 68.6675C56.2908 68.5923 56.262 68.511 56.2393 68.4252C56.2182 68.3439 56.206 68.2611 56.2015 68.1783L58.2043 67.6756C58.2406 67.7509 58.2679 67.8276 58.289 67.9104C58.3117 67.9977 58.3238 68.082 58.3284 68.1648L57.6189 68.3424L58.2149 70.6905C58.168 70.7071 58.1226 70.7251 58.0758 70.7402C58.0289 70.7568 57.9835 70.7703 57.9381 70.7808C57.8927 70.7929 57.8443 70.8019 57.7929 70.814C57.7399 70.8245 57.687 70.832 57.6325 70.838L57.0365 68.4899Z" fill="#1C1A2E"/>
<path d="M60.5203 70.1637C60.307 70.2179 60.1119 70.2269 59.9379 70.1923C59.7639 70.1577 59.6096 70.0884 59.475 69.9831C59.3419 69.8777 59.2284 69.7422 59.1331 69.5767C59.0393 69.4111 58.9652 69.2229 58.9123 69.0122C58.8593 68.8015 58.8336 68.5998 58.8366 68.4071C58.8397 68.2145 58.8745 68.0398 58.9425 67.8833C59.0091 67.7268 59.112 67.5913 59.2496 67.4784C59.3873 67.3655 59.5627 67.2827 59.776 67.2285C59.9908 67.1744 60.1845 67.1653 60.3599 67.1984C60.5339 67.2331 60.6882 67.3038 60.8228 67.4092C60.9559 67.516 61.0709 67.653 61.1647 67.8201C61.2585 67.9887 61.3341 68.1768 61.3871 68.3876C61.44 68.5983 61.4657 68.7985 61.4612 68.9881C61.4566 69.1778 61.4218 69.3509 61.3538 69.5059C61.2857 69.661 61.1844 69.7949 61.0467 69.9078C60.9106 70.0267 60.7351 70.1095 60.5203 70.1637ZM60.3977 69.682C60.8077 69.5797 60.9302 69.2019 60.7638 68.5486C60.6806 68.222 60.5702 67.9902 60.428 67.8517C60.2873 67.7147 60.1134 67.6711 59.9046 67.7238C59.4886 67.8276 59.3646 68.2069 59.5295 68.8587C59.6959 69.5119 59.9863 69.7859 60.3977 69.682Z" fill="#1C1A2E"/>
<path d="M61.6609 66.8086C61.7093 66.7875 61.7562 66.7709 61.8031 66.7559C61.85 66.7408 61.8984 66.7273 61.9483 66.7153C61.9937 66.7032 62.0406 66.6942 62.0874 66.6852C62.1359 66.6761 62.1858 66.6686 62.2387 66.6641L62.6124 68.1362C62.6532 68.2957 62.694 68.4327 62.7349 68.5441C62.7757 68.6555 62.8241 68.7443 62.8786 68.8105C62.9346 68.8767 62.9981 68.9189 63.0722 68.9384C63.1463 68.958 63.2341 68.955 63.3369 68.9279C63.4398 68.9023 63.5185 68.8632 63.5729 68.812C63.6274 68.7608 63.6622 68.6931 63.6788 68.6088C63.6955 68.5245 63.6955 68.4237 63.6788 68.3063C63.6622 68.1889 63.6319 68.0504 63.5911 67.8893L63.2174 66.4172C63.2689 66.3962 63.3173 66.3781 63.3642 66.363C63.4111 66.348 63.4564 66.3344 63.5018 66.3239C63.5487 66.3119 63.5986 66.3013 63.647 66.2908C63.697 66.2818 63.7484 66.2742 63.7998 66.2697L64.2037 67.8637C64.2521 68.0564 64.2809 68.2355 64.2899 68.4026C64.299 68.5697 64.2763 68.7202 64.2234 68.8542C64.1704 68.9881 64.0827 69.1025 63.9602 69.1988C63.8392 69.2952 63.6712 69.3704 63.4595 69.4231C63.2477 69.4758 63.0662 69.4894 62.9134 69.4623C62.7606 69.4352 62.6275 69.375 62.5171 69.2831C62.4066 69.1898 62.3144 69.0694 62.2433 68.9174C62.1722 68.7653 62.1101 68.5953 62.0617 68.4026L61.6609 66.8086Z" fill="#1C1A2E"/>
<path d="M64.5365 66.0876C64.6484 66.0454 64.7558 66.0063 64.8557 65.9717C64.9555 65.9371 65.0675 65.9039 65.1915 65.8723C65.3367 65.8362 65.485 65.8121 65.6317 65.8031C65.78 65.7941 65.9191 65.8076 66.0507 65.8467C66.1808 65.8844 66.2958 65.9521 66.3941 66.05C66.494 66.1463 66.565 66.2833 66.6089 66.4594C66.6361 66.5647 66.6467 66.6596 66.6407 66.7469C66.6346 66.8342 66.6195 66.9124 66.5938 66.9832C66.5681 67.0539 66.5363 67.1171 66.5 67.1728C66.4637 67.2285 66.4274 67.2752 66.3926 67.3113L66.3366 67.3715L67.335 68.3966C67.2836 68.4146 67.2306 68.4342 67.1732 68.4538C67.1157 68.4733 67.0582 68.4914 66.9977 68.5065C66.8963 68.532 66.795 68.5486 66.6936 68.5576L65.6136 67.4272L65.6968 67.3565C65.7285 67.3294 65.7679 67.2948 65.8132 67.2511C65.8586 67.209 65.8995 67.1593 65.9388 67.1051C65.9766 67.0494 66.0053 66.9862 66.0235 66.9154C66.0417 66.8447 66.0401 66.7679 66.019 66.6836C65.9766 66.5181 65.8995 66.4082 65.7845 66.3555C65.6695 66.3013 65.5364 66.2938 65.3851 66.3314C65.3277 66.3465 65.2747 66.363 65.2293 66.3826L65.8374 68.7774C65.7905 68.794 65.7452 68.812 65.6983 68.8271C65.6514 68.8436 65.606 68.8572 65.5606 68.8677C65.5152 68.8782 65.4683 68.8888 65.4169 68.8993C65.3655 68.9099 65.3125 68.9174 65.2581 68.9219L64.5365 66.0876Z" fill="#1C1A2E"/>
<path d="M67.1021 65.4419C67.1807 65.4057 67.2564 65.3771 67.3305 65.3591C67.4091 65.3395 67.4939 65.326 67.5816 65.3214L69.1427 66.8522L68.6843 65.0445C68.7751 65.0053 68.8644 64.9737 68.9521 64.9527C69.0338 64.9316 69.1155 64.9195 69.1956 64.9165L69.9157 67.7539C69.8355 67.7915 69.7599 67.8186 69.6918 67.8351C69.6177 67.8547 69.5345 67.8667 69.4437 67.8728L67.8766 66.348L68.3334 68.1512C68.2532 68.1889 68.1685 68.2175 68.0823 68.24C67.9946 68.2611 67.9083 68.2747 67.8221 68.2792L67.1021 65.4419Z" fill="#1C1A2E"/>
<path d="M70.5843 64.5688C70.6388 64.5478 70.6902 64.5267 70.7386 64.5116C70.787 64.4951 70.843 64.4785 70.9035 64.4635C70.9564 64.4499 71.0079 64.4394 71.0593 64.4304C71.1107 64.4213 71.1667 64.4138 71.2302 64.4063L72.8413 67.0193C72.7369 67.063 72.634 67.0961 72.5297 67.1232C72.4283 67.1488 72.3285 67.1653 72.2301 67.1728L71.9276 66.6445L70.9837 66.8808L70.9655 67.4904C70.8748 67.5296 70.7855 67.5612 70.6978 67.5823C70.5994 67.6063 70.5011 67.6229 70.4013 67.6304L70.5843 64.5688ZM71.6735 66.2005L71.0427 65.0911L71.0003 66.3691L71.6735 66.2005Z" fill="#1C1A2E"/>
<path d="M72.6945 64.0375C72.7959 63.9953 72.8957 63.9622 72.994 63.9366C73.0969 63.9111 73.2013 63.893 73.3057 63.884L74.3721 65.3455L74.6338 63.5498C74.711 63.5137 74.8002 63.4821 74.9016 63.458C75.0029 63.4324 75.0997 63.4158 75.1965 63.4098L76.0512 66.214C75.9544 66.2547 75.8621 66.2863 75.7714 66.3088C75.6821 66.3314 75.5914 66.3465 75.4991 66.351L74.9394 64.4424L74.6989 65.922C74.6626 65.9371 74.6263 65.9506 74.5869 65.9642C74.5476 65.9777 74.5083 65.9897 74.4689 66.0003C74.4341 66.0093 74.3993 66.0153 74.3646 66.0229C74.3298 66.0289 74.2919 66.0334 74.2526 66.0334L73.3677 64.8067L73.8079 66.774C73.7277 66.8116 73.6475 66.8402 73.5689 66.8598C73.4842 66.8808 73.3949 66.8944 73.3011 66.9019L72.6945 64.0375Z" fill="#1C1A2E"/>
<path d="M76.0255 63.2021L77.6441 62.7957C77.6804 62.871 77.7092 62.9492 77.7288 63.0305C77.7515 63.1178 77.7636 63.2036 77.7681 63.2849L76.7289 63.5453L76.8847 64.1609L77.7107 63.9532C77.7485 64.033 77.7772 64.1128 77.7969 64.191C77.8181 64.2753 77.8317 64.3596 77.8362 64.4454L77.0103 64.6516L77.2009 65.4027L78.2673 65.1348C78.3037 65.2101 78.3309 65.2883 78.3521 65.3696C78.3732 65.4569 78.3868 65.5412 78.3914 65.624L76.7456 66.0379L76.0255 63.2021Z" fill="#1C1A2E"/>
<path d="M78.3021 62.6301C78.3808 62.594 78.4564 62.5669 78.5305 62.5474C78.6092 62.5278 78.6939 62.5142 78.7816 62.5097L80.3427 64.0405L79.8844 62.2328C79.9752 62.1936 80.0644 62.162 80.1521 62.141C80.2338 62.1199 80.3155 62.1078 80.3957 62.1048L81.1157 64.9421C81.0356 64.9798 80.9599 65.0069 80.8919 65.0234C80.8177 65.0415 80.7345 65.0535 80.6438 65.061L79.0766 63.5363L79.5335 65.3395C79.4533 65.3771 79.3686 65.4057 79.2823 65.4283C79.1946 65.4494 79.1084 65.4629 79.0222 65.4675L78.3021 62.6301Z" fill="#1C1A2E"/>
<path d="M81.8025 62.2719L81.0931 62.4495C81.0583 62.3743 81.028 62.293 81.0068 62.2072C80.9856 62.1259 80.9735 62.0431 80.969 61.9603L82.9718 61.4576C83.0066 61.5328 83.0354 61.6096 83.0565 61.6924C83.0792 61.7797 83.0913 61.864 83.0959 61.9468L82.3864 62.1244L82.9824 64.4725C82.9355 64.4891 82.8886 64.5071 82.8432 64.5222C82.7964 64.5387 82.751 64.5523 82.7056 64.5628C82.6602 64.5733 82.6118 64.5839 82.5604 64.5959C82.5074 64.6065 82.4545 64.614 82.4 64.6185L81.8025 62.2719Z" fill="#1C1A2E"/>
<path d="M66.7209 17.8593C54.6434 17.8593 44.8184 27.6356 44.8184 39.6532C44.8184 51.6707 54.6434 61.4471 66.7209 61.4471C78.7983 61.4471 88.6233 51.6707 88.6233 39.6532C88.6233 27.6356 78.7983 17.8593 66.7209 17.8593ZM87.6688 39.6532C87.6688 41.056 87.5266 42.4273 87.2589 43.7533L85.4345 42.918V36.5675L87.2694 35.6102C87.5296 36.9197 87.6688 38.2699 87.6688 39.6532ZM45.7744 39.6532C45.7744 38.2699 45.9136 36.9197 46.1723 35.6117L48.0072 36.569V42.9195L46.1829 43.7549C45.9166 42.4273 45.7744 41.056 45.7744 39.6532ZM72.3769 43.4312L78.6712 46.9971L78.8936 53.2783L72.9683 56.5055L67.2443 53.781V46.4462L72.3769 43.4312ZM67.2458 32.3047V25.6036L72.8957 22.8174L78.5426 26.0115V32.3318L72.3133 35.7201L67.2458 32.3047ZM72.814 42.5688V36.5886L79.1069 33.1627L84.3756 36.3989V43.0459L79.1598 46.1421L72.814 42.5688ZM78.9934 25.1776L73.3435 21.9896V19.8823C76.0437 20.7809 78.5018 22.2093 80.5878 24.0487L78.9934 25.1776ZM54.7705 46.9971L61.0649 43.4312L66.1975 46.4462V53.781L60.4734 56.5055L54.5481 53.2783L54.7705 46.9971ZM54.2849 46.1421L49.0691 43.0459V36.3989L54.3379 33.1627L60.6307 36.5886V42.5688L54.2849 46.1421ZM61.1314 35.7201L54.9021 32.3318V26.0115L60.549 22.8174L66.199 25.6036V32.3047L61.1314 35.7201ZM60.0997 21.9896L54.4498 25.1776L52.8539 24.0487C54.9414 22.2093 57.3981 20.7809 60.0982 19.8823V21.9896H60.0997ZM54.1382 54.0866L60.0997 57.3439V59.4241C57.3527 58.5104 54.8567 57.0488 52.7465 55.1643L54.1382 54.0866ZM73.3435 57.3424L79.305 54.0851L80.6967 55.1613C78.5865 57.0458 76.0906 58.5074 73.3435 59.421V57.3424Z" fill="#1C1A2E"/>
<path d="M101.003 61.6879C108.727 61.8294 116.45 63.452 124.173 67.5537C121.582 63.8253 118.992 60.3753 116.401 57.1677C118.992 55.6701 121.582 54.4147 124.173 53.4378C116.45 49.3362 108.727 47.7135 101.003 47.5721C101.003 52.2773 101.003 56.9826 101.003 61.6879Z" fill="#1C1A2E"/>
<path d="M32.3462 73.4195C24.6223 73.278 16.8999 71.6554 9.17607 67.5537C11.7673 66.5768 14.3571 65.3214 16.9483 63.8238C14.3571 60.6162 11.7673 57.1662 9.17607 53.4378C16.8999 57.5395 24.6223 59.1621 32.3462 59.3036C32.3462 64.0089 32.3462 68.7142 32.3462 73.4195Z" fill="#1C1A2E"/>
<path d="M105.584 56.4949C79.5758 53.9135 53.5694 70.3564 27.5615 67.6756C27.5615 62.9703 27.5615 58.265 27.5615 53.5598C53.5694 56.2405 79.5758 39.7977 105.584 42.3791C105.584 47.0844 105.584 51.7896 105.584 56.4949Z" fill="#1C1A2E"/>
<path d="M27.5615 67.6756C29.1559 69.6595 30.7518 71.5711 32.3462 73.4195C32.3462 71.5997 32.3462 69.7814 32.3462 67.9616C30.7518 67.9315 29.1574 67.8397 27.5615 67.6756Z" fill="#1C1A2E"/>
<path d="M105.786 56.516C104.192 58.1702 102.596 59.8982 101.002 61.6879C101.002 59.8681 101.002 58.0498 101.002 56.23C102.598 56.2586 104.192 56.3519 105.786 56.516Z" fill="#1C1A2E"/>
<path d="M36.3185 57.6329C36.4093 58.107 36.4562 58.3433 36.5469 58.816C36.5711 58.9409 36.5061 59.0116 36.3533 59.0282C35.603 59.111 35.2279 59.1486 34.4776 59.2178C34.594 59.8259 34.653 60.13 34.7695 60.7381C35.4215 60.6764 35.7467 60.6433 36.3987 60.571C36.5515 60.5545 36.6407 60.6072 36.6649 60.7321C36.7557 61.2047 36.8011 61.441 36.8934 61.9137C36.9176 62.0386 36.8525 62.1078 36.6997 62.1259C36.0478 62.1997 35.7225 62.2343 35.0705 62.2975C35.3141 63.5664 35.4366 64.2001 35.6802 65.469C35.7044 65.5939 35.6393 65.6631 35.4865 65.6782C34.9011 65.7384 34.6077 65.7655 34.0222 65.8167C33.8695 65.8302 33.7802 65.7745 33.756 65.6496C33.1706 62.5925 32.8771 61.0617 32.2902 57.9956C32.266 57.8707 32.331 57.803 32.4838 57.7924C33.9118 57.6901 34.6258 57.6253 36.0538 57.4718C36.2051 57.4552 36.2943 57.5079 36.3185 57.6329Z" fill="#F5F5F5"/>
<path d="M43.4055 62.9823C43.4494 63.2111 43.4373 63.4354 43.3662 63.6552C43.2966 63.8749 43.1817 64.0751 43.0243 64.2543C42.867 64.4349 42.6704 64.5884 42.4359 64.7179C42.1999 64.8458 41.9397 64.9331 41.6553 64.9767C41.4057 65.0159 41.2802 65.0339 41.0291 65.0716C40.7447 65.1152 40.4664 65.1092 40.1971 65.058C39.9278 65.0069 39.6843 64.918 39.4695 64.7931C39.2547 64.6682 39.0716 64.5116 38.9234 64.3235C38.7752 64.1353 38.6768 63.9261 38.633 63.6958C38.2623 61.7782 38.0763 60.8179 37.7057 58.8972C37.6618 58.6669 37.6739 58.4441 37.745 58.2274C37.8146 58.0106 37.9296 57.8165 38.0869 57.6419C38.2442 57.4688 38.4408 57.3213 38.6753 57.1993C38.9098 57.0789 39.1715 56.9976 39.4559 56.9585C39.7055 56.9239 39.831 56.9073 40.0821 56.8712C40.3665 56.8306 40.6449 56.8351 40.9141 56.8863C41.1834 56.9374 41.4269 57.0217 41.6417 57.1421C41.8565 57.2626 42.0396 57.4146 42.1878 57.5997C42.3361 57.7834 42.4329 57.9911 42.4783 58.2184C42.8489 60.1255 43.0334 61.0783 43.4055 62.9823ZM40.5647 58.5811C40.548 58.4938 40.4936 58.4231 40.4058 58.3734C40.3181 58.3237 40.2183 58.3057 40.1078 58.3222C40.0549 58.3297 40.0292 58.3343 39.9762 58.3418C39.8658 58.3568 39.7796 58.4005 39.7145 58.4727C39.6495 58.545 39.6253 58.6248 39.6434 58.7136C40.0035 60.5755 40.185 61.5057 40.545 63.3647C40.5617 63.452 40.6146 63.5227 40.7038 63.5724C40.7916 63.6221 40.8914 63.6386 41.0019 63.6236C41.0548 63.616 41.0805 63.6115 41.1335 63.604C41.2424 63.5874 41.3301 63.5423 41.3952 63.4685C41.4602 63.3948 41.4844 63.315 41.4663 63.2262C41.1062 61.3688 40.9262 60.4401 40.5647 58.5811Z" fill="#F5F5F5"/>
<path d="M49.3777 61.8625C49.4216 62.0898 49.4095 62.314 49.3384 62.5368C49.2688 62.7596 49.1538 62.9628 48.9965 63.1494C48.8392 63.3346 48.6425 63.4986 48.4081 63.6356C48.1721 63.7726 47.9119 63.8704 47.6275 63.9261C47.3779 63.9743 47.2524 63.9999 47.0028 64.0465C46.7169 64.1007 46.44 64.1083 46.1708 64.0691C45.9015 64.0285 45.658 63.9502 45.4432 63.8358C45.2284 63.7214 45.0453 63.5724 44.8971 63.3918C44.7488 63.2096 44.652 63.0049 44.6066 62.7777C44.236 60.8766 44.05 59.9253 43.6793 58.0227C43.6355 57.7954 43.6476 57.5711 43.7187 57.3514C43.7898 57.1316 43.9032 56.9314 44.0605 56.7493C44.2179 56.5687 44.4145 56.4121 44.649 56.2797C44.8835 56.1472 45.1436 56.0554 45.4295 56.0042C45.6791 55.9591 45.8047 55.9365 46.0543 55.8898C46.3387 55.8371 46.617 55.8296 46.8863 55.8688C47.1555 55.9079 47.3991 55.9832 47.6139 56.0945C47.8287 56.2059 48.0117 56.3519 48.16 56.531C48.3082 56.7087 48.4066 56.9119 48.4504 57.1376C48.821 59.0267 49.0071 59.9719 49.3777 61.8625ZM46.5384 57.5757C46.5217 57.4884 46.4673 57.4206 46.3795 57.374C46.2918 57.3273 46.192 57.3153 46.0815 57.3348C46.0286 57.3454 46.0029 57.3499 45.9499 57.3589C45.8395 57.38 45.7518 57.4266 45.6882 57.5019C45.6232 57.5772 45.599 57.6584 45.6171 57.7457C45.9771 59.5911 46.1587 60.5138 46.5187 62.3577C46.5353 62.445 46.5883 62.5127 46.6775 62.5579C46.7653 62.6045 46.8651 62.6166 46.9755 62.5955C47.0285 62.585 47.0542 62.5805 47.1071 62.5699C47.2161 62.5489 47.3038 62.5007 47.3688 62.4239C47.4339 62.3487 47.4581 62.2659 47.4399 62.1786C47.0784 60.3407 46.8984 59.4195 46.5384 57.5757Z" fill="#F5F5F5"/>
<path d="M53.9234 54.5351C54.0141 54.9972 54.061 55.229 54.1518 55.6911C54.176 55.813 54.111 55.8898 53.9582 55.9244C53.4907 56.0313 53.2578 56.084 52.7904 56.1878C53.2714 58.6293 53.5104 59.8485 53.9915 62.2869C54.0157 62.4089 53.9506 62.4856 53.7978 62.5217C53.2124 62.6542 52.9189 62.7204 52.3335 62.8484C52.2791 62.8604 52.2231 62.8544 52.1671 62.8303C52.1112 62.8062 52.0779 62.7686 52.0673 62.7159C51.5863 60.273 51.3457 59.0522 50.8662 56.6063C50.4048 56.7041 50.1749 56.7523 49.715 56.8486C49.5623 56.8802 49.473 56.8351 49.4488 56.7132C49.358 56.2481 49.3111 56.0163 49.2204 55.5511C49.1962 55.4292 49.2612 55.354 49.4155 55.3224C51.1128 54.9731 51.9629 54.788 53.6602 54.4042C53.8099 54.3711 53.8992 54.4147 53.9234 54.5351Z" fill="#F5F5F5"/>
<path d="M60.2117 57.1527C60.3887 57.2355 60.5324 57.3499 60.6428 57.4944C60.7517 57.6389 60.8259 57.8105 60.8652 58.0091C60.9499 58.4336 60.9907 58.6458 61.0755 59.0703C61.1193 59.2946 61.1072 59.5189 61.0361 59.7446C60.965 59.9704 60.8516 60.1812 60.6943 60.3723C60.5369 60.565 60.3403 60.7366 60.1043 60.8841C59.8698 61.0331 59.6096 61.1415 59.3237 61.2122C58.3556 61.45 57.8731 61.5659 56.9049 61.7962C56.8384 61.8113 56.7748 61.8203 56.7113 61.8218C56.6493 61.8233 56.6084 61.7767 56.5888 61.6803C56.0034 58.7121 55.7099 57.2279 55.123 54.2567C55.0988 54.1362 55.1638 54.058 55.3181 54.0218C56.3059 53.7916 56.799 53.6741 57.7868 53.4363C58.0712 53.3686 58.3496 53.346 58.6188 53.3701C58.8881 53.3957 59.1316 53.4574 59.3464 53.5582C59.5612 53.6591 59.7443 53.7961 59.8925 53.9662C60.0408 54.1378 60.1376 54.3349 60.183 54.5607C60.251 54.9024 60.2843 55.074 60.3524 55.4157C60.431 55.813 60.3433 56.1833 60.0892 56.5265C59.9515 56.7056 59.7776 56.8667 59.5628 57.0097C59.8184 57.0232 60.0347 57.0699 60.2117 57.1527ZM58.2709 55.1011C58.2543 55.0153 58.2013 54.9506 58.1121 54.9084C58.0228 54.8663 57.9245 54.8587 57.8141 54.8858C57.6038 54.937 57.4979 54.9611 57.2876 55.0123C57.4268 55.7182 57.4964 56.0704 57.6356 56.7764C57.8458 56.7252 57.9517 56.7011 58.162 56.6499C58.2709 56.6228 58.3586 56.5702 58.4237 56.4919C58.4887 56.4121 58.5129 56.3293 58.4948 56.2435C58.4055 55.786 58.3601 55.5572 58.2709 55.1011ZM58.8987 58.2756C58.882 58.1898 58.8291 58.125 58.7398 58.0844C58.6506 58.0423 58.5523 58.0347 58.4418 58.0618C58.2316 58.113 58.1257 58.1386 57.9154 58.1883C58.0606 58.9198 58.1317 59.2856 58.277 60.0156C58.4872 59.9644 58.5931 59.9388 58.8034 59.8876C58.9138 59.8605 59 59.8079 59.0651 59.7281C59.1301 59.6483 59.1543 59.567 59.1362 59.4797C59.0409 58.9981 58.994 58.7572 58.8987 58.2756Z" fill="#F5F5F5"/>
<path d="M67.4167 58.9845C67.4621 59.1004 67.4091 59.1772 67.2548 59.2163C66.6558 59.3699 66.3563 59.4466 65.7573 59.5987C65.6151 59.6348 65.5198 59.5956 65.4744 59.4813C65.3216 58.9875 65.2444 58.7407 65.0917 58.2485C64.6832 58.3523 64.479 58.405 64.0721 58.5074C64.1205 59.0282 64.1447 59.2871 64.1916 59.8079C64.1931 59.9343 64.122 60.0156 63.9798 60.0517C63.3808 60.2037 63.0813 60.279 62.4823 60.4295C62.3295 60.4687 62.2508 60.425 62.2493 60.2986C62.157 57.2144 62.1101 55.6731 62.0179 52.5889C62.0163 52.4625 62.092 52.3812 62.2448 52.342C63.1131 52.1238 63.5472 52.0139 64.417 51.7926C64.5713 51.7535 64.6696 51.7911 64.7165 51.907C65.7966 54.7383 66.3366 56.1532 67.4167 58.9845ZM64.6726 56.8321C64.3217 55.7212 64.1447 55.1658 63.7938 54.055C63.7408 54.0685 63.7151 54.0745 63.6622 54.0881C63.7635 55.2622 63.8149 55.8507 63.9163 57.0248C64.2188 56.948 64.3701 56.9089 64.6726 56.8321Z" fill="#F5F5F5"/>
<path d="M72.6007 56.4543C72.6915 56.9149 72.7384 57.1452 72.8292 57.6058C72.8534 57.7262 72.7883 57.806 72.6355 57.8451C71.7476 58.0694 71.3028 58.1823 70.4149 58.4095C70.4013 58.4125 70.3952 58.4141 70.3816 58.4171C70.3756 58.4186 70.3725 58.4201 70.365 58.4216C69.7795 58.5706 69.4861 58.6459 68.9007 58.7964C68.7464 58.8355 68.6586 58.7949 68.6344 58.6745C68.049 55.7167 67.7555 54.2386 67.1686 51.2824C67.1444 51.162 67.2095 51.0822 67.3638 51.0431C67.9492 50.8925 68.2426 50.8188 68.8281 50.6683C68.9808 50.6291 69.0701 50.6698 69.0943 50.7902C69.5753 53.2151 69.8159 54.4268 70.2954 56.8517C71.1122 56.6439 71.5192 56.5401 72.336 56.3339C72.4888 56.2917 72.5765 56.3324 72.6007 56.4543Z" fill="#F5F5F5"/>
<path d="M78.0797 55.0981C78.1705 55.5602 78.2159 55.7905 78.3082 56.2526C78.3324 56.3745 78.2673 56.4528 78.1145 56.4889C77.2266 56.7027 76.7819 56.811 75.8924 57.0308C75.8788 57.0338 75.8727 57.0353 75.8591 57.0383C75.8531 57.0398 75.8485 57.0413 75.8425 57.0428C75.2571 57.1873 74.9636 57.2596 74.3782 57.4071C74.2239 57.4447 74.1361 57.4041 74.1119 57.2837C73.5265 54.3229 73.2331 52.8433 72.6461 49.8841C72.6219 49.7636 72.687 49.6839 72.8413 49.6462C73.4267 49.4987 73.7201 49.425 74.3056 49.2775C74.4583 49.2398 74.5476 49.2805 74.5718 49.4009C75.0528 51.8288 75.2918 53.042 75.7729 55.4714C76.5897 55.2697 76.9967 55.1703 77.8135 54.9732C77.9678 54.9355 78.0555 54.9777 78.0797 55.0981Z" fill="#F5F5F5"/>
<path d="M83.5769 47.119C83.8462 47.1506 84.0897 47.2198 84.3045 47.3267C84.5193 47.4336 84.7024 47.5766 84.8506 47.7527C84.9989 47.9288 85.0957 48.1305 85.1411 48.3563C85.2031 48.6693 85.2333 48.8259 85.2938 49.1375C85.318 49.2594 85.2621 49.3527 85.1259 49.4174C84.542 49.6176 84.2486 49.7185 83.6647 49.9232C83.5285 49.9894 83.4499 49.9623 83.4257 49.8404C83.347 49.44 83.3077 49.2383 83.229 48.8379C83.2124 48.7506 83.1594 48.6859 83.0702 48.6423C82.9824 48.5986 82.8826 48.5896 82.7737 48.6137C82.7207 48.6257 82.695 48.6317 82.6421 48.6438C82.5316 48.6678 82.4454 48.719 82.3804 48.7973C82.3153 48.8756 82.2926 48.9583 82.3093 49.0441C82.6693 50.8745 82.8508 51.7911 83.2109 53.623C83.2275 53.7103 83.2804 53.775 83.3697 53.8187C83.4589 53.8623 83.5573 53.8713 83.6677 53.8488C83.7206 53.8367 83.7463 53.8307 83.7993 53.8202C83.9082 53.7961 83.9959 53.7449 84.061 53.6681C84.126 53.5914 84.1502 53.5086 84.1321 53.4213C84.0096 52.7966 83.9475 52.4835 83.825 51.8589C83.8008 51.737 83.8643 51.6783 84.0126 51.6828C84.6237 51.615 84.9293 51.5819 85.5404 51.5187C85.6887 51.5232 85.7764 51.5864 85.8006 51.7084C85.908 52.2563 85.9624 52.5302 86.0699 53.0781C86.1137 53.3039 86.1016 53.5297 86.0305 53.7524C85.9609 53.9752 85.846 54.1799 85.6887 54.3666C85.5313 54.5532 85.3347 54.7173 85.1002 54.8573C84.8642 54.9972 84.604 55.0981 84.3197 55.1598C84.0701 55.214 83.9445 55.2411 83.6949 55.2968C83.409 55.36 83.1322 55.3766 82.8629 55.3449C82.5937 55.3148 82.3501 55.2471 82.1353 55.1417C81.919 55.0364 81.7375 54.8964 81.5892 54.7233C81.441 54.5487 81.3442 54.35 81.2988 54.1242C80.9282 52.2427 80.7421 51.3035 80.3715 49.4235C80.3276 49.1992 80.3397 48.9734 80.4108 48.7491C80.4819 48.5248 80.5954 48.3171 80.7527 48.126C80.91 47.9363 81.1067 47.7677 81.3427 47.6232C81.5771 47.4787 81.8373 47.3734 82.1232 47.3086C82.3728 47.2514 82.4984 47.2243 82.748 47.1687C83.0308 47.1039 83.3077 47.0874 83.5769 47.119Z" fill="#F5F5F5"/>
<path d="M91.6699 52.2216C91.7607 52.6897 91.8076 52.923 91.8983 53.3912C91.9225 53.5146 91.8575 53.5884 91.7047 53.6154C90.8167 53.769 90.372 53.8503 89.484 54.0173C89.4704 54.0203 89.4644 54.0203 89.4508 54.0234C89.4447 54.0249 89.4417 54.0249 89.4341 54.0264C88.8487 54.1362 88.5552 54.1934 87.9698 54.3078C87.8155 54.3379 87.7278 54.2928 87.7036 54.1709C87.1182 51.18 86.8247 49.6869 86.2378 46.7005C86.2136 46.5786 86.2786 46.5019 86.4329 46.4702C87.0183 46.3498 87.3118 46.2911 87.8972 46.1752C88.05 46.1451 88.1393 46.1903 88.1635 46.3122C88.6445 48.7657 88.885 49.9924 89.3645 52.4504C90.1814 52.2969 90.5883 52.2216 91.4052 52.0786C91.558 52.0515 91.6472 52.0997 91.6699 52.2216Z" fill="#F5F5F5"/>
<path d="M96.2413 44.9485C96.7193 47.4185 96.9583 48.6558 97.4378 51.1304C97.4817 51.3607 97.4696 51.5834 97.3985 51.8002C97.3274 52.0184 97.2139 52.2126 97.0566 52.3872C96.8993 52.5618 96.7027 52.7108 96.4682 52.8328C96.2337 52.9547 95.972 53.036 95.6876 53.0781C95.438 53.1142 95.3125 53.1323 95.0629 53.1684C94.777 53.2106 94.5002 53.2076 94.2309 53.1579C93.9616 53.1097 93.7181 53.0254 93.5033 52.905C93.287 52.7861 93.1054 52.6341 92.9572 52.4504C92.8074 52.2668 92.7121 52.0606 92.6668 51.8333C92.1888 49.3768 91.9497 48.1486 91.4702 45.6966C91.446 45.5747 91.5111 45.4994 91.6638 45.4723C92.2493 45.3715 92.5427 45.3218 93.1281 45.2254C93.2809 45.1999 93.3702 45.2495 93.3944 45.3714C93.8679 47.8054 94.1038 49.0231 94.5773 51.46C94.5939 51.5473 94.6469 51.6165 94.7361 51.6662C94.8254 51.7159 94.9237 51.7325 95.0341 51.7174C95.0871 51.7099 95.1128 51.7054 95.1657 51.6978C95.2747 51.6813 95.3624 51.6376 95.4275 51.5639C95.4925 51.4916 95.5167 51.4103 95.4985 51.323C95.0251 48.8816 94.7891 47.6624 94.3156 45.2254C94.2914 45.102 94.3565 45.0298 94.5092 45.0057C95.0947 44.9169 95.3881 44.8732 95.9735 44.7904C96.1293 44.7739 96.2171 44.8251 96.2413 44.9485Z" fill="#F5F5F5"/>
<path d="M102.694 48.3533C102.871 48.4661 103.015 48.6046 103.124 48.7687C103.233 48.9328 103.307 49.1179 103.346 49.3226C103.431 49.7621 103.472 49.9819 103.557 50.4214C103.601 50.6532 103.588 50.876 103.517 51.0897C103.446 51.302 103.333 51.4931 103.176 51.6572C103.018 51.8228 102.822 51.9597 102.586 52.0696C102.351 52.1795 102.089 52.2457 101.805 52.2713C100.837 52.3571 100.354 52.4053 99.3862 52.5121C99.3196 52.5197 99.2561 52.5197 99.1926 52.5137C99.1305 52.5076 99.0897 52.455 99.07 52.3586C98.4846 49.3181 98.1912 47.8009 97.6042 44.7679C97.58 44.6444 97.6451 44.5737 97.7994 44.5541C98.7872 44.4307 99.2803 44.3735 100.267 44.2726C100.551 44.2425 100.829 44.2606 101.099 44.3253C101.368 44.39 101.61 44.4909 101.826 44.6249C102.041 44.7603 102.224 44.9259 102.372 45.1216C102.521 45.3173 102.617 45.531 102.663 45.7643C102.731 46.118 102.764 46.2941 102.832 46.6479C102.911 47.0588 102.823 47.4125 102.569 47.7135C102.431 47.8701 102.256 48.0025 102.043 48.1109C102.3 48.1591 102.516 48.2404 102.694 48.3533ZM100.752 46.0006C100.736 45.9118 100.683 45.8396 100.593 45.7854C100.506 45.7312 100.406 45.7101 100.295 45.7207C100.085 45.7417 99.9792 45.7538 99.7689 45.7763C99.9081 46.5003 99.9777 46.8616 100.117 47.5871C100.327 47.5645 100.433 47.554 100.643 47.5329C100.754 47.5224 100.84 47.4817 100.905 47.4125C100.97 47.3433 100.993 47.2635 100.976 47.1747C100.888 46.7036 100.843 46.4687 100.752 46.0006ZM101.38 49.2669C101.363 49.1781 101.31 49.1059 101.221 49.0517C101.132 48.9975 101.034 48.9749 100.923 48.9854C100.713 49.0065 100.607 49.0171 100.397 49.0381C100.542 49.7892 100.613 50.1655 100.758 50.9166C100.968 50.8956 101.074 50.8865 101.285 50.8655C101.395 50.8549 101.481 50.8158 101.546 50.7465C101.611 50.6773 101.634 50.599 101.617 50.5102C101.524 50.012 101.475 49.7636 101.38 49.2669Z" fill="#F5F5F5"/>
<path d="M86.2302 66.9395L62.688 75.2874L66.2065 89.2888L83.2532 74.2097L86.2302 66.9395Z" fill="#1C1A2E"/>
<path d="M49.4291 17.3957L44.829 30.8597L34.0041 34.8982L34.5456 23.5896L49.4291 17.3957Z" fill="#1C1A2E"/>
<path d="M71.8883 75.3461L72.8231 78.206H75.8455L73.3995 79.9746L74.3343 82.8345L71.8883 81.0659L69.4437 82.8345L70.3771 79.9746L67.9325 78.206L70.9549 79.0474L71.8883 75.3461Z" fill="#F5F5F5"/>
<path d="M74.0832 90.624C79.0479 88.8373 88.8729 82.3197 96.7949 65.5021C96.7949 65.5021 106.196 64.766 112.113 68.1302C112.111 68.1286 101.126 84.4225 74.0832 90.624Z" fill="#1C1A2E"/>
<path d="M35.42 71.3874L35.1023 76.7489C33.7288 77.0018 31.1572 76.7188 28.8594 76.3576C34.942 81.3534 44.6974 87.3742 58.8714 90.6239C54.5043 89.0525 46.378 83.8174 39.0928 71.1345L35.42 71.3874Z" fill="#1C1A2E"/>
<path d="M113.309 30.6385L119.954 26.8725C123.39 15.2131 124.577 5.90192 124.577 5.90192L104.717 21.8797C105 28.9135 103.959 35.8962 103.238 39.7495H108.096L108.202 45.1095L112.745 45.7402C115.235 40.6812 117.245 35.416 118.856 30.4308L113.309 30.6385Z" fill="#1C1A2E"/>
<path d="M28.2361 21.8797L8.37584 5.90192C8.37584 5.90192 9.51944 15.2794 12.8383 26.9101L19.4186 30.6385L13.8896 30.4308C16.3644 38.3316 19.827 46.9022 24.5709 54.1137L24.642 50.1189L31.6836 50.3988C29.7156 41.5708 28.165 31.8998 28.2361 21.8797Z" fill="#1C1A2E"/>
</svg>
