<svg width="25" height="25" viewBox="0 0 25 25" fill="none" xmlns="http://www.w3.org/2000/svg">
<path d="M24.0383 9.6157H22.1152C22.1131 7.83116 21.4033 6.12029 20.1415 4.85842C18.8796 3.59656 17.1687 2.88675 15.3842 2.88472V0.961577C17.6786 0.964122 19.8783 1.87671 21.5008 3.49912C23.1232 5.12153 24.0358 7.32126 24.0383 9.6157ZM16.666 17.7717L18.8199 15.6178C19.1082 15.3294 19.4748 15.132 19.8742 15.0499C20.2737 14.9679 20.6884 15.0049 21.0671 15.1563L23.6902 16.2063C24.0768 16.361 24.4083 16.628 24.6417 16.9728C24.8751 17.3177 24.9999 17.7245 24.9999 18.141V22.9113C25.0005 23.1948 24.9434 23.4755 24.8318 23.7362C24.7202 23.9968 24.5566 24.232 24.351 24.4272C24.1454 24.6225 23.9022 24.7737 23.6361 24.8717C23.37 24.9696 23.0868 25.0123 22.8036 24.997C4.41653 23.8527 0.702947 8.27912 0.0135025 2.31547C-0.0198893 2.02391 0.00882233 1.7286 0.0977492 1.44894C0.186676 1.16928 0.333803 0.911613 0.529453 0.692892C0.725102 0.474172 0.964841 0.299351 1.2329 0.179928C1.50096 0.0605057 1.79127 -0.00081198 2.08472 8.11895e-06H6.77045C7.18687 -5.25267e-06 7.59375 0.124754 7.9386 0.358192C8.28344 0.59163 8.55043 0.923038 8.70512 1.30967L9.7542 3.93283C9.90559 4.31147 9.94256 4.72621 9.86051 5.12566C9.77847 5.5251 9.58103 5.8917 9.29264 6.18001L7.13873 8.33393C7.13873 8.33393 8.333 16.7303 16.666 17.7717Z" fill="#18B923"/>
</svg>
